<?xml version="1.0" encoding="UTF-8" standalone="no"?>
<svg xmlns:rdf="http://www.w3.org/1999/02/22-rdf-syntax-ns#" xmlns="http://www.w3.org/2000/svg" height="100" width="315" version="1.1" xmlns:cc="http://creativecommons.org/ns#" xmlns:dc="http://purl.org/dc/elements/1.1/" viewBox="0 0 315 100">
 <defs>
  <filter id="f" style="color-interpolation-filters:sRGB">
   <feGaussianBlur stdDeviation="3" result="blur"/>
  </filter>
  <linearGradient id="g" y2="70" gradientUnits="userSpaceOnUse" y1="30" x2="0">
   <stop stop-color="#323232" offset="0"/>
   <stop stop-color="#fff" offset="1"/>
  </linearGradient>
  <mask id="i" maskUnits="userSpaceOnUse">
   <rect height="100" width="315" y="0" x="0" fill="url(#g)"/>
  </mask>
  <linearGradient id="h" y2="100" gradientUnits="userSpaceOnUse" y1="45" x2="0">
   <stop stop-color="#fff" offset="0"/>
   <stop stop-color="#282828" offset=".5"/>
   <stop offset="1"/>
  </linearGradient>
  <mask id="j" maskUnits="userSpaceOnUse">
   <rect height="100" width="315" stroke="#fff" y="0" x="0" fill="url(#h)"/>
  </mask>
 </defs>
 <g mask="url(#j)" fill="#1e1e1e">
  <path d="m39.65 74.26q-9 0-16.11-4.05-7.02-4.05-10.98-11.43-3.96-7.47-3.96-17.28t3.96-17.19q3.96-7.47 10.98-11.52 7.11-4.05 16.11-4.05t16.02 4.05q7.11 4.05 11.07 11.52 3.96 7.38 3.96 17.19t-3.96 17.28q-3.96 7.38-11.07 11.43-7.02 4.05-16.02 4.05zm0-8.28q7.02 0 11.97-3.15 4.95-3.24 7.38-8.73 2.52-5.58 2.52-12.6t-2.52-12.51q-2.43-5.58-7.38-8.73-4.95-3.24-11.97-3.24t-11.97 3.24q-4.95 3.15-7.47 8.73-2.43 5.49-2.43 12.51t2.43 12.6q2.52 5.49 7.47 8.73 4.95 3.15 11.97 3.15z"/>
  <path d="m101.28 28q5.85 0 10.17 3.06 4.41 2.97 6.75 8.19t2.34 11.7q0 6.57-2.25 11.79-2.16 5.13-6.48 8.19-4.32 2.97-10.53 2.97-4.59 0-8.37-1.62t-5.94-4.68v27.18h-8.1v-65.88h6.3l0.9 6.12q5.579-7.02 15.21-7.02zm-1.53 38.7q5.85 0 9.18-4.14 3.33-4.23 3.33-11.61t-3.33-11.52q-3.33-4.23-9.18-4.23-5.76 0-9.54 4.05-3.69 4.05-3.69 11.7 0 7.92 3.69 11.88 3.69 3.87 9.54 3.87z"/>
  <path d="m139.23 73.9q-6.12 0-9.9-3.6-3.69-3.6-3.69-9.18 0-8.37 7.92-11.97t18.45-3.78q0-5.94-2.34-8.01-2.25-2.16-7.29-2.16-2.79 0-5.58 0.9-2.79 0.81-6.03 3.06l-1.17-6.57q2.7-2.07 6.66-3.33t8.28-1.26q5.67 0 9 1.98 3.42 1.98 4.95 6.57 1.62 4.59 1.62 12.6v9q0 3.6 0.27 5.49 0.36 1.8 1.44 2.79t3.33 0.99h0.81l-1.26 6.48h-0.63q-3.78 0-5.94-0.72t-3.33-2.07q-1.08-1.35-2.07-3.69-5.58 6.48-13.5 6.48zm1.53-6.48q3.24 0 6.21-1.62 3.06-1.62 5.04-4.32v-10.53q-9.72 0.36-13.95 2.61-4.14 2.16-4.14 7.11 0 3.42 1.8 5.13 1.89 1.62 5.04 1.62z"/>
  <path d="m211.18 28.9v65.88h-8.1v-27.09q-2.16 3.06-5.76 4.68-3.6 1.53-8.1 1.53-6.3 0-10.8-2.97-4.41-3.06-6.66-8.19-2.25-5.22-2.25-11.79 0-6.12 2.34-11.34 2.43-5.31 6.84-8.46 4.5-3.15 10.44-3.15 5.13 0 8.64 1.71t6.21 5.22l0.9-6.03h6.3zm-20.88 37.8q5.85 0 9.54-3.87 3.69-3.96 3.69-11.88 0-7.65-3.78-11.7-3.69-4.05-9.45-4.05-5.85 0-9.18 4.23-3.33 4.14-3.33 11.52t3.33 11.61q3.33 4.14 9.18 4.14z"/>
  <path d="m258.31 28.9v44.1h-7.2l-0.9-4.86q-2.16 2.97-5.13 4.41-2.88 1.35-7.11 1.35-7.92 0-12.15-4.77-4.14-4.86-4.14-14.58v-25.65h8.1v23.4q0 7.2 2.43 10.8 2.52 3.6 7.83 3.6 3.15 0 5.85-1.26 2.79-1.26 4.32-3.69v-32.85h8.1z"/>
  <path d="m290.39 73.9q-7.56 0-12.96-3.06-5.31-3.15-8.1-8.46t-2.79-11.79q0-6.21 2.52-11.34 2.61-5.22 7.47-8.19 4.95-3.06 11.61-3.06 8.46 0 13.68 4.95 5.31 4.95 5.31 13.68 0 2.25-0.36 4.32h-31.95q0.81 8.55 5.22 12.15t11.34 3.6 12.69-2.61l1.08 6.39q-7.65 3.42-14.76 3.42zm8.37-28.53q0-4.77-2.7-7.47t-8.1-2.7q-5.22 0-8.19 2.61-2.97 2.52-4.23 7.56h23.22z"/>
 </g>
 <g filter="url(#f)" mask="url(#i)" fill="#282828">
  <path d="m39.65 74.26q-9 0-16.11-4.05-7.02-4.05-10.98-11.43-3.96-7.47-3.96-17.28t3.96-17.19q3.96-7.47 10.98-11.52 7.11-4.05 16.11-4.05t16.02 4.05q7.11 4.05 11.07 11.52 3.96 7.38 3.96 17.19t-3.96 17.28q-3.96 7.38-11.07 11.43-7.02 4.05-16.02 4.05zm0-8.28q7.02 0 11.97-3.15 4.95-3.24 7.38-8.73 2.52-5.58 2.52-12.6t-2.52-12.51q-2.43-5.58-7.38-8.73-4.95-3.24-11.97-3.24t-11.97 3.24q-4.95 3.15-7.47 8.73-2.43 5.49-2.43 12.51t2.43 12.6q2.52 5.49 7.47 8.73 4.95 3.15 11.97 3.15z"/>
  <path d="m101.28 28q5.85 0 10.17 3.06 4.41 2.97 6.75 8.19t2.34 11.7q0 6.57-2.25 11.79-2.16 5.13-6.48 8.19-4.32 2.97-10.53 2.97-4.59 0-8.37-1.62t-5.94-4.68v27.18h-8.1v-65.88h6.3l0.9 6.12q5.579-7.02 15.21-7.02zm-1.53 38.7q5.85 0 9.18-4.14 3.33-4.23 3.33-11.61t-3.33-11.52q-3.33-4.23-9.18-4.23-5.76 0-9.54 4.05-3.69 4.05-3.69 11.7 0 7.92 3.69 11.88 3.69 3.87 9.54 3.87z"/>
  <path d="m139.23 73.9q-6.12 0-9.9-3.6-3.69-3.6-3.69-9.18 0-8.37 7.92-11.97t18.45-3.78q0-5.94-2.34-8.01-2.25-2.16-7.29-2.16-2.79 0-5.58 0.9-2.79 0.81-6.03 3.06l-1.17-6.57q2.7-2.07 6.66-3.33t8.28-1.26q5.67 0 9 1.98 3.42 1.98 4.95 6.57 1.62 4.59 1.62 12.6v9q0 3.6 0.27 5.49 0.36 1.8 1.44 2.79t3.33 0.99h0.81l-1.26 6.48h-0.63q-3.78 0-5.94-0.72t-3.33-2.07q-1.08-1.35-2.07-3.69-5.58 6.48-13.5 6.48zm1.53-6.48q3.24 0 6.21-1.62 3.06-1.62 5.04-4.32v-10.53q-9.72 0.36-13.95 2.61-4.14 2.16-4.14 7.11 0 3.42 1.8 5.13 1.89 1.62 5.04 1.62z"/>
  <path d="m211.18 28.9v65.88h-8.1v-27.09q-2.16 3.06-5.76 4.68-3.6 1.53-8.1 1.53-6.3 0-10.8-2.97-4.41-3.06-6.66-8.19-2.25-5.22-2.25-11.79 0-6.12 2.34-11.34 2.43-5.31 6.84-8.46 4.5-3.15 10.44-3.15 5.13 0 8.64 1.71t6.21 5.22l0.9-6.03h6.3zm-20.88 37.8q5.85 0 9.54-3.87 3.69-3.96 3.69-11.88 0-7.65-3.78-11.7-3.69-4.05-9.45-4.05-5.85 0-9.18 4.23-3.33 4.14-3.33 11.52t3.33 11.61q3.33 4.14 9.18 4.14z"/>
  <path d="m258.31 28.9v44.1h-7.2l-0.9-4.86q-2.16 2.97-5.13 4.41-2.88 1.35-7.11 1.35-7.92 0-12.15-4.77-4.14-4.86-4.14-14.58v-25.65h8.1v23.4q0 7.2 2.43 10.8 2.52 3.6 7.83 3.6 3.15 0 5.85-1.26 2.79-1.26 4.32-3.69v-32.85h8.1z"/>
  <path d="m290.39 73.9q-7.56 0-12.96-3.06-5.31-3.15-8.1-8.46t-2.79-11.79q0-6.21 2.52-11.34 2.61-5.22 7.47-8.19 4.95-3.06 11.61-3.06 8.46 0 13.68 4.95 5.31 4.95 5.31 13.68 0 2.25-0.36 4.32h-31.95q0.81 8.55 5.22 12.15t11.34 3.6 12.69-2.61l1.08 6.39q-7.65 3.42-14.76 3.42zm8.37-28.53q0-4.77-2.7-7.47t-8.1-2.7q-5.22 0-8.19 2.61-2.97 2.52-4.23 7.56h23.22z"/>
 </g>
</svg>
